<svg width="508" height="222" viewBox="0 0 508 222" fill="none" xmlns="http://www.w3.org/2000/svg">
<g clip-path="url(#clip0_4_4091)">
<path d="M0.0527344 2.30771C36.2538 2.30771 65.5891 50.4623 65.5891 109.888C65.5891 169.314 36.2538 217.469 0.0527344 217.469" stroke="#EDF738" stroke-opacity="0.4" stroke-width="0.918685"/>
<path d="M254.198 142.335C228.358 150.789 195.539 155.977 161.397 155.977C74.0155 155.977 3.11133 123.352 3.11133 83.0872C3.11133 42.8226 74.0155 10.1977 161.397 10.1977C199.721 10.1977 226.798 13.6122 254.198 24.0697" stroke="#EDF738" stroke-opacity="0.4" stroke-width="0.918685"/>
<path d="M254.198 196.044C226.797 206.563 200.031 209.514 161.583 209.514C74.201 209.514 3.29688 176.827 3.29688 136.625C3.29688 96.4223 74.201 63.6725 161.583 63.6725C195.724 63.6725 228.243 68.4943 254.083 76.9479" stroke="#EDF738" stroke-opacity="0.4" stroke-width="0.918685"/>
<path d="M506.867 217.469C470.667 217.469 441.331 169.314 441.331 109.888C441.331 50.4623 470.667 2.30771 506.867 2.30771" stroke="#EDF738" stroke-opacity="0.4" stroke-width="0.918685"/>
<path d="M253.896 77.2636C279.737 68.8099 311.381 63.8003 345.523 63.8003C432.905 63.8003 503.809 96.425 503.809 136.69C503.809 176.954 432.967 209.579 345.523 209.579C307.2 209.579 281.599 206.501 254.198 196.044" stroke="#EDF738" stroke-opacity="0.4" stroke-width="0.918685"/>
<path d="M254.198 24.0698C281.598 13.5497 307.013 10.0098 345.46 10.0098C432.842 10.0098 503.746 42.6347 503.746 82.8992C503.746 123.163 432.904 155.789 345.46 155.789C311.319 155.789 280.038 150.789 254.198 142.335" stroke="#EDF738" stroke-opacity="0.4" stroke-width="0.918685"/>
<path d="M256.581 218.283C336.416 218.283 401.136 169.754 401.136 109.888C401.136 50.0235 336.416 1.49353 256.581 1.49353C176.746 1.49353 112.026 50.0235 112.026 109.888C112.026 169.754 176.746 218.283 256.581 218.283Z" stroke="#EDF738" stroke-opacity="0.4" stroke-width="0.918685"/>
<path d="M254.209 1.49353V218.283" stroke="#EDF738" stroke-opacity="0.4" stroke-width="0.918685"/>
</g>
<defs>
<clipPath id="clip0_4_4091">
<rect width="507.114" height="220.484" fill="white" transform="translate(0.0527344 0.742157)"/>
</clipPath>
</defs>
</svg>
