<svg width="642" height="69" viewBox="0 0 642 69" fill="none" xmlns="http://www.w3.org/2000/svg">
<g clip-path="url(#clip0_4_4350)">
<path d="M10.5668 13.804V54.5312H5.63494V13.804H10.5668ZM20.4553 54.5312V13.804H34.2166C37.4117 13.804 40.0234 14.3807 42.0518 15.5341C44.0935 16.6742 45.6049 18.2188 46.5859 20.1676C47.567 22.1165 48.0575 24.2907 48.0575 26.6903C48.0575 29.09 47.567 31.2708 46.5859 33.233C45.6181 35.1951 44.12 36.7595 42.0916 37.9261C40.0632 39.0795 37.4647 39.6562 34.2962 39.6562H24.4325V35.2812H34.1371C36.3246 35.2812 38.0812 34.9034 39.407 34.1477C40.7327 33.392 41.6939 32.3712 42.2905 31.0852C42.9003 29.786 43.2053 28.321 43.2053 26.6903C43.2053 25.0597 42.9003 23.6013 42.2905 22.3153C41.6939 21.0294 40.7261 20.0218 39.3871 19.2926C38.0481 18.5502 36.2715 18.179 34.0575 18.179H25.3871V54.5312H20.4553ZM56.0021 54.5312V13.804H80.5817V18.179H60.9339V31.9403H79.3089V36.3153H60.9339V50.1562H80.8999V54.5312H56.0021ZM66.2635 9.66761L60.0589 0.440339H65.5476L70.3999 9.66761H66.2635ZM89.4709 54.5312V13.804H103.232C106.414 13.804 109.026 14.3475 111.067 15.4347C113.109 16.5085 114.621 17.9867 115.602 19.8693C116.583 21.7519 117.073 23.893 117.073 26.2926C117.073 28.6922 116.583 30.8201 115.602 32.6761C114.621 34.5322 113.116 35.9905 111.087 37.0511C109.059 38.0985 106.467 38.6222 103.312 38.6222H92.1754V34.1676H103.153C105.327 34.1676 107.077 33.8494 108.403 33.2131C109.742 32.5767 110.71 31.6752 111.306 30.5085C111.916 29.3286 112.221 27.9233 112.221 26.2926C112.221 24.6619 111.916 23.2367 111.306 22.017C110.696 20.7973 109.722 19.8561 108.383 19.1932C107.044 18.517 105.274 18.179 103.073 18.179H94.4027V54.5312H89.4709ZM108.641 36.2358L118.664 54.5312H112.937L103.073 36.2358H108.641ZM125.291 54.5312V13.804H149.871V18.179H130.223V31.9403H148.598V36.3153H130.223V50.1562H150.189V54.5312H125.291ZM175.624 31.9801V36.3551H157.805V31.9801H175.624ZM184.518 54.5312V13.804H198.279C201.461 13.804 204.073 14.3475 206.114 15.4347C208.156 16.5085 209.667 17.9867 210.648 19.8693C211.629 21.7519 212.12 23.893 212.12 26.2926C212.12 28.6922 211.629 30.8201 210.648 32.6761C209.667 34.5322 208.163 35.9905 206.134 37.0511C204.106 38.0985 201.514 38.6222 198.359 38.6222H187.222V34.1676H198.2C200.374 34.1676 202.124 33.8494 203.45 33.2131C204.789 32.5767 205.756 31.6752 206.353 30.5085C206.963 29.3286 207.268 27.9233 207.268 26.2926C207.268 24.6619 206.963 23.2367 206.353 22.017C205.743 20.7973 204.769 19.8561 203.43 19.1932C202.091 18.517 200.321 18.179 198.12 18.179H189.45V54.5312H184.518ZM203.688 36.2358L213.711 54.5312H207.984L198.12 36.2358H203.688ZM220.338 54.5312V13.804H244.918V18.179H225.27V31.9403H243.645V36.3153H225.27V50.1562H245.236V54.5312H220.338ZM230.44 9.66761L235.293 0.440339H240.781L234.577 9.66761H230.44ZM255.477 54.5312H250.307L265.261 13.804H270.352L285.307 54.5312H280.136L267.966 20.2472H267.648L255.477 54.5312ZM257.386 38.6222H278.227V42.9972H257.386V38.6222ZM291.651 54.5312V13.804H296.582V50.1562H315.514V54.5312H291.651ZM328.082 13.804V54.5312H323.151V13.804H328.082ZM360.244 23.9858C360.005 21.9706 359.037 20.4062 357.34 19.2926C355.643 18.179 353.562 17.6222 351.096 17.6222C349.293 17.6222 347.715 17.9138 346.363 18.4972C345.024 19.0805 343.977 19.8826 343.221 20.9034C342.478 21.9242 342.107 23.0843 342.107 24.3835C342.107 25.4706 342.366 26.4053 342.883 27.1875C343.413 27.9564 344.089 28.5994 344.911 29.1165C345.733 29.6203 346.595 30.0379 347.496 30.3693C348.398 30.6875 349.227 30.946 349.982 31.1449L354.119 32.2585C355.179 32.5369 356.359 32.9214 357.658 33.4119C358.971 33.9025 360.224 34.572 361.417 35.4205C362.623 36.2557 363.618 37.3295 364.4 38.642C365.182 39.9545 365.573 41.5653 365.573 43.4744C365.573 45.6752 364.996 47.6638 363.843 49.4403C362.703 51.2169 361.032 52.6288 358.832 53.6761C356.644 54.7235 353.986 55.2472 350.857 55.2472C347.941 55.2472 345.415 54.7765 343.281 53.8352C341.159 52.8939 339.489 51.5814 338.269 49.8977C337.063 48.214 336.38 46.2585 336.221 44.0312H341.312C341.444 45.5691 341.961 46.8419 342.863 47.8494C343.778 48.8437 344.931 49.5862 346.323 50.0767C347.728 50.554 349.24 50.7926 350.857 50.7926C352.74 50.7926 354.43 50.4877 355.928 49.8778C357.426 49.2547 358.613 48.393 359.488 47.2926C360.363 46.179 360.8 44.8797 360.8 43.3949C360.8 42.0426 360.423 40.9422 359.667 40.0938C358.911 39.2453 357.917 38.5559 356.684 38.0256C355.451 37.4953 354.119 37.0312 352.687 36.6335L347.675 35.2017C344.494 34.2869 341.975 32.9811 340.119 31.2841C338.263 29.5871 337.335 27.3665 337.335 24.6222C337.335 22.3419 337.951 20.3532 339.184 18.6562C340.43 16.946 342.101 15.6203 344.195 14.679C346.303 13.7244 348.656 13.2472 351.255 13.2472C353.88 13.2472 356.213 13.7178 358.255 14.6591C360.297 15.5871 361.914 16.8598 363.107 18.4773C364.314 20.0947 364.95 21.9309 365.016 23.9858H360.244ZM371.455 18.179V13.804H402V18.179H389.193V54.5312H384.261V18.179H371.455ZM409.612 54.5312V13.804H434.191V18.179H414.543V31.9403H432.918V36.3153H414.543V50.1562H434.509V54.5312H409.612Z" fill="#E8E8E8"/>
</g>
<defs>
<clipPath id="clip0_4_4350">
<rect width="640.344" height="68.1875" fill="white" transform="translate(0.703125 0.53125)"/>
</clipPath>
</defs>
</svg>
