<svg width="1015" height="253" viewBox="0 0 1015 253" fill="none" xmlns="http://www.w3.org/2000/svg">
<path d="M344.242 77.0937V18.9119H369.356C373.674 18.9119 377.452 19.6979 380.691 21.2699C383.93 22.8418 386.449 25.1051 388.248 28.0596C390.047 31.0142 390.947 34.5558 390.947 38.6846C390.947 42.8513 390.019 46.3646 388.163 49.2244C386.326 52.0842 383.74 54.2433 380.407 55.7017C377.093 57.16 373.219 57.8892 368.788 57.8892H353.788V45.6164H365.606C367.462 45.6164 369.043 45.3892 370.35 44.9346C371.676 44.4611 372.689 43.713 373.39 42.6903C374.11 41.6676 374.469 40.3324 374.469 38.6846C374.469 37.018 374.11 35.6638 373.39 34.6221C372.689 33.5615 371.676 32.785 370.35 32.2926C369.043 31.7812 367.462 31.5255 365.606 31.5255H360.038V77.0937H344.242ZM378.333 50.3892L392.879 77.0937H375.719L361.515 50.3892H378.333ZM399.28 77.0937V18.9119H441.212V31.6392H415.075V41.6392H439.052V54.3664H415.075V64.3664H441.098V77.0937H399.28ZM466.554 18.9119L478.486 59.9346H478.941L490.873 18.9119H508.713L489.509 77.0937H467.918L448.713 18.9119H466.554ZM515.917 77.0937V18.9119H557.849V31.6392H531.713V41.6392H555.69V54.3664H531.713V64.3664H557.735V77.0937H515.917ZM582.396 77.0937H565.351L584.556 18.9119H606.146L625.351 77.0937H608.306L595.578 34.9346H595.124L582.396 77.0937ZM579.215 54.1392H611.26V65.9574H579.215V54.1392ZM632.555 77.0937V18.9119H648.35V64.3664H671.873V77.0937H632.555Z" fill="#EDF738"/>
<g clip-path="url(#clip0_4_4108)">
<path d="M238.783 127.639V114.912H289.351V127.639H271.851V173.094H256.283V127.639H238.783ZM296.895 173.094V114.912H312.691V137.639H333.6V114.912H349.395V173.094H333.6V150.366H312.691V173.094H296.895ZM358.495 173.094V114.912H400.427V127.639H374.291V137.639H398.268V150.366H374.291V160.366H400.314V173.094H358.495ZM427.398 173.094V114.912H452.626C457.058 114.912 460.779 115.508 463.79 116.702C466.821 117.895 469.103 119.58 470.637 121.758C472.19 123.937 472.967 126.503 472.967 129.457C472.967 131.598 472.493 133.548 471.546 135.31C470.618 137.071 469.311 138.548 467.626 139.741C465.94 140.916 463.97 141.73 461.717 142.185V142.753C464.217 142.848 466.489 143.482 468.535 144.656C470.58 145.812 472.209 147.412 473.421 149.457C474.633 151.484 475.239 153.87 475.239 156.616C475.239 159.798 474.406 162.63 472.739 165.111C471.092 167.592 468.743 169.543 465.694 170.963C462.645 172.383 459.008 173.094 454.785 173.094H427.398ZM443.194 160.48H450.58C453.232 160.48 455.22 159.988 456.546 159.003C457.872 157.999 458.535 156.522 458.535 154.571C458.535 153.207 458.222 152.052 457.597 151.105C456.972 150.158 456.082 149.438 454.927 148.946C453.79 148.454 452.417 148.207 450.808 148.207H443.194V160.48ZM443.194 138.435H449.671C451.054 138.435 452.275 138.217 453.336 137.781C454.397 137.346 455.22 136.721 455.808 135.906C456.414 135.073 456.717 134.06 456.717 132.866C456.717 131.067 456.073 129.694 454.785 128.747C453.497 127.781 451.868 127.298 449.898 127.298H443.194V138.435ZM482.436 173.094V114.912H524.368V127.639H498.231V137.639H522.209V150.366H498.231V160.366H524.254V173.094H482.436ZM537.892 179.685V108.321H564.029V119.685H553.12V168.321H564.029V179.685H537.892ZM585.75 173.094H568.704L587.909 114.912H609.5L628.704 173.094H611.659L598.931 130.935H598.477L585.75 173.094ZM582.568 150.139H614.613V161.957H582.568V150.139ZM659.544 108.321V179.685H633.408V168.321H644.317V119.685H633.408V108.321H659.544ZM704.106 133.094C703.954 131.2 703.244 129.723 701.975 128.662C700.725 127.601 698.822 127.071 696.265 127.071C694.636 127.071 693.301 127.27 692.259 127.668C691.237 128.046 690.479 128.567 689.987 129.23C689.494 129.893 689.238 130.651 689.219 131.503C689.182 132.204 689.305 132.838 689.589 133.406C689.892 133.955 690.365 134.457 691.009 134.912C691.653 135.348 692.477 135.745 693.481 136.105C694.485 136.465 695.678 136.787 697.06 137.071L701.833 138.094C705.053 138.776 707.808 139.675 710.1 140.793C712.392 141.91 714.267 143.226 715.725 144.741C717.183 146.238 718.254 147.923 718.935 149.798C719.636 151.673 719.996 153.719 720.015 155.935C719.996 159.76 719.04 162.999 717.146 165.651C715.252 168.302 712.543 170.319 709.021 171.702C705.517 173.084 701.303 173.776 696.379 173.776C691.322 173.776 686.909 173.027 683.14 171.531C679.39 170.035 676.473 167.734 674.39 164.628C672.326 161.503 671.284 157.507 671.265 152.639H686.265C686.36 154.419 686.805 155.916 687.6 157.128C688.396 158.34 689.513 159.258 690.952 159.883C692.411 160.508 694.144 160.821 696.151 160.821C697.837 160.821 699.248 160.613 700.384 160.196C701.521 159.779 702.382 159.202 702.969 158.463C703.557 157.724 703.86 156.882 703.879 155.935C703.86 155.044 703.566 154.268 702.998 153.605C702.449 152.923 701.54 152.317 700.271 151.787C699.002 151.238 697.288 150.726 695.129 150.253L689.333 149.003C684.182 147.885 680.119 146.02 677.146 143.406C674.191 140.774 672.723 137.185 672.742 132.639C672.723 128.946 673.708 125.717 675.697 122.952C677.704 120.168 680.479 117.999 684.021 116.446C687.581 114.893 691.663 114.116 696.265 114.116C700.962 114.116 705.024 114.902 708.452 116.474C711.88 118.046 714.522 120.262 716.379 123.122C718.254 125.963 719.201 129.287 719.219 133.094H704.106ZM726.033 127.639V114.912H776.601V127.639H759.101V173.094H743.533V127.639H726.033Z" fill="#EDF738"/>
</g>
<rect x="452.984" y="232.094" width="109.266" height="20.7969" rx="2" fill="#EDF738"/>
<path d="M458.041 247.094V238.366H459.098V242.253H463.751V238.366H464.808V247.094H463.751V243.19H459.098V247.094H458.041ZM467.174 238.366H468.384L470.805 242.44H470.907L473.327 238.366H474.538L471.384 243.497V247.094H470.327V243.497L467.174 238.366ZM476.904 247.094V238.366H479.853C480.538 238.366 481.098 238.49 481.532 238.737C481.97 238.981 482.294 239.312 482.504 239.73C482.714 240.148 482.819 240.614 482.819 241.128C482.819 241.642 482.714 242.109 482.504 242.53C482.297 242.95 481.975 243.285 481.541 243.535C481.106 243.783 480.549 243.906 479.87 243.906H477.757V242.969H479.836C480.305 242.969 480.681 242.888 480.966 242.726C481.25 242.564 481.456 242.345 481.583 242.07C481.714 241.791 481.779 241.477 481.779 241.128C481.779 240.778 481.714 240.466 481.583 240.19C481.456 239.915 481.248 239.699 480.961 239.543C480.674 239.383 480.294 239.304 479.819 239.304H477.961V247.094H476.904ZM485.522 247.094V238.366H490.789V239.304H486.578V242.253H490.516V243.19H486.578V246.156H490.857V247.094H485.522ZM493.694 247.094V238.366H496.642C497.324 238.366 497.884 238.483 498.321 238.716C498.759 238.946 499.083 239.263 499.293 239.666C499.503 240.07 499.608 240.528 499.608 241.043C499.608 241.557 499.503 242.013 499.293 242.41C499.083 242.808 498.76 243.121 498.326 243.348C497.891 243.572 497.336 243.685 496.659 243.685H494.273V242.73H496.625C497.091 242.73 497.466 242.662 497.75 242.526C498.037 242.389 498.245 242.196 498.373 241.946C498.503 241.693 498.569 241.392 498.569 241.043C498.569 240.693 498.503 240.388 498.373 240.126C498.242 239.865 498.033 239.663 497.746 239.521C497.459 239.376 497.08 239.304 496.608 239.304H494.75V247.094H493.694ZM497.801 243.173L499.949 247.094H498.722L496.608 243.173H497.801ZM502.369 247.094V238.366H507.636V239.304H503.426V242.253H507.364V243.19H503.426V246.156H507.705V247.094H502.369ZM510.899 247.094H509.791L512.996 238.366H514.087L517.291 247.094H516.183L513.575 239.747H513.507L510.899 247.094ZM511.308 243.685H515.774V244.622H511.308V243.685ZM519.651 247.094V238.366H520.707V246.156H524.764V247.094H519.651ZM528.457 238.366V247.094H527.401V238.366H528.457ZM536.349 240.548C536.298 240.116 536.091 239.781 535.727 239.543C535.363 239.304 534.917 239.185 534.389 239.185C534.002 239.185 533.664 239.247 533.375 239.372C533.088 239.497 532.863 239.669 532.701 239.888C532.542 240.106 532.463 240.355 532.463 240.633C532.463 240.866 532.518 241.067 532.629 241.234C532.743 241.399 532.887 241.537 533.064 241.648C533.24 241.756 533.424 241.845 533.618 241.916C533.811 241.984 533.988 242.04 534.15 242.082L535.037 242.321C535.264 242.381 535.517 242.463 535.795 242.568C536.076 242.673 536.345 242.817 536.6 242.999C536.859 243.177 537.072 243.408 537.24 243.689C537.407 243.97 537.491 244.315 537.491 244.724C537.491 245.196 537.368 245.622 537.12 246.003C536.876 246.383 536.518 246.686 536.047 246.91C535.578 247.135 535.008 247.247 534.338 247.247C533.713 247.247 533.172 247.146 532.714 246.945C532.26 246.743 531.902 246.462 531.64 246.101C531.382 245.74 531.235 245.321 531.201 244.844H532.292C532.321 245.173 532.431 245.446 532.625 245.662C532.821 245.875 533.068 246.034 533.366 246.139C533.667 246.241 533.991 246.293 534.338 246.293C534.741 246.293 535.103 246.227 535.424 246.097C535.745 245.963 536 245.778 536.187 245.543C536.375 245.304 536.468 245.026 536.468 244.707C536.468 244.418 536.387 244.182 536.225 244C536.064 243.818 535.85 243.67 535.586 243.557C535.322 243.443 535.037 243.344 534.73 243.258L533.656 242.952C532.974 242.756 532.434 242.476 532.037 242.112C531.639 241.749 531.44 241.273 531.44 240.685C531.44 240.196 531.572 239.77 531.836 239.406C532.103 239.04 532.461 238.756 532.91 238.554C533.362 238.349 533.866 238.247 534.423 238.247C534.985 238.247 535.485 238.348 535.923 238.55C536.36 238.749 536.707 239.021 536.963 239.368C537.221 239.714 537.358 240.108 537.372 240.548H536.349ZM539.751 239.304V238.366H546.297V239.304H543.553V247.094H542.496V239.304H539.751Z" fill="black"/>
<defs>
<clipPath id="clip0_4_4108">
<rect width="592.562" height="96" fill="white" transform="translate(211.328 96.0937)"/>
</clipPath>
</defs>
</svg>
