<svg width="16" height="17" viewBox="0 0 16 17" fill="none" xmlns="http://www.w3.org/2000/svg">
<g clip-path="url(#clip0_4_4275)">
<path d="M11.7436 8.09372C11.7436 10.0755 10.138 11.6755 8.16183 11.6755C6.18569 11.6755 4.58008 10.0699 4.58008 8.09372C4.58008 6.11758 6.18569 4.51196 8.16183 4.51196C10.138 4.51196 11.7436 6.11758 11.7436 8.09372Z" fill="#DC2B46"/>
<path d="M8.16183 11.6755C10.14 11.6755 11.7436 10.0719 11.7436 8.09372C11.7436 6.11557 10.14 4.51196 8.16183 4.51196C6.18368 4.51196 4.58008 6.11557 4.58008 8.09372C4.58008 10.0719 6.18368 11.6755 8.16183 11.6755Z" stroke="#DC2B46" stroke-width="0.36" stroke-miterlimit="10"/>
<path d="M7.99999 0.09375V16.0938M0 8.09375H16" stroke="#DC2B46" stroke-width="1.08" stroke-miterlimit="10"/>
</g>
<defs>
<clipPath id="clip0_4_4275">
<rect width="16" height="16" fill="white" transform="translate(0 0.09375)"/>
</clipPath>
</defs>
</svg>
