<svg width="717" height="716" viewBox="0 0 717 716" fill="none" xmlns="http://www.w3.org/2000/svg">
<g clip-path="url(#clip0_4_4424)">
<g opacity="0.4">
<path d="M508.475 291.549L612.723 284.375C619.835 283.883 622.403 293.624 615.959 296.703L521.702 341.849C516.461 344.408 516.92 351.997 522.466 353.861L621.483 387.121C628.275 389.368 626.929 399.363 619.765 399.747L515.426 405.377C509.619 405.695 507.129 412.937 511.511 416.759L590.306 485.386C595.717 490.095 590.63 498.804 583.892 496.397L485.368 461.705C479.85 459.762 474.819 465.463 477.377 470.705L523.913 564.283C527.046 570.702 519.083 576.773 513.778 572.011L436.005 502.223C431.65 498.322 424.805 501.664 425.201 507.497L432.376 611.744C432.867 618.856 423.127 621.425 420.048 614.98L374.901 520.724C372.343 515.482 364.753 515.941 362.89 521.487L329.63 620.503C327.382 627.297 317.387 625.949 317.004 618.787L311.374 514.446C311.057 508.641 303.814 506.15 299.992 510.532L231.365 589.327C226.655 594.739 217.947 589.651 220.354 582.914L255.046 484.389C256.989 478.871 251.287 473.84 246.046 476.398L152.468 522.936C146.05 526.068 139.977 518.104 144.739 512.8L214.528 435.026C218.43 430.672 215.088 423.826 209.254 424.222L105.006 431.397C97.8945 431.888 95.3268 422.149 101.77 419.069L196.028 373.923C201.269 371.365 200.809 363.774 195.265 361.912L96.247 328.651C89.4549 326.404 90.801 316.409 97.9648 316.025L202.304 310.395C208.11 310.077 210.602 302.835 206.22 299.013L127.424 230.386C122.012 225.677 127.099 216.968 133.838 219.375L232.361 254.068C237.879 256.01 242.911 250.309 240.352 245.068L193.816 151.489C190.683 145.071 198.646 138.999 203.951 143.76L281.724 213.549C286.079 217.45 292.924 214.109 292.528 208.276L285.274 104C284.783 96.8885 294.522 94.3203 297.602 100.764L342.748 195.021C345.306 200.263 352.897 199.803 354.759 194.258L388.073 95.2147C390.321 88.4222 400.316 89.7687 400.7 96.9324L406.33 201.272C406.648 207.078 413.889 209.569 417.712 205.187L486.339 126.391C491.048 120.98 499.757 126.067 497.35 132.805L462.657 231.329C460.715 236.847 466.416 241.879 471.657 239.32L565.236 192.784C571.654 189.651 577.726 197.614 572.964 202.918L503.176 280.692C499.275 285.047 502.616 291.892 508.449 291.496L508.475 291.549Z" stroke="#E8E8E8" stroke-width="0.668651" stroke-miterlimit="10"/>
<path d="M459.575 313.627L529.873 308.789C534.669 308.459 536.401 315.027 532.056 317.103L468.494 347.546C464.959 349.272 465.27 354.391 469.008 355.646L535.78 378.075C540.36 379.59 539.453 386.331 534.622 386.589L464.261 390.386C460.346 390.601 458.666 395.485 461.622 398.062L514.757 444.339C518.406 447.515 514.975 453.388 510.431 451.765L443.993 428.37C440.272 427.06 436.879 430.905 438.604 434.44L469.985 497.542C472.098 501.87 466.729 505.965 463.151 502.755L410.705 455.693C407.769 453.062 403.152 455.315 403.42 459.249L408.259 529.548C408.59 534.343 402.022 536.074 399.945 531.729L369.502 468.169C367.776 464.634 362.658 464.944 361.402 468.684L338.973 535.454C337.457 540.035 330.718 539.126 330.458 534.296L326.662 463.936C326.448 460.021 321.564 458.341 318.987 461.295L272.709 514.43C269.534 518.08 263.661 514.649 265.283 510.105L288.678 443.666C289.988 439.947 286.143 436.552 282.609 438.278L219.506 469.66C215.178 471.773 211.083 466.402 214.294 462.825L261.355 410.379C263.986 407.443 261.733 402.827 257.799 403.094L187.501 407.932C182.706 408.264 180.973 401.696 185.318 399.619L248.88 369.175C252.414 367.45 252.104 362.332 248.365 361.075L181.593 338.647C177.014 337.131 177.922 330.391 182.752 330.132L253.113 326.336C257.028 326.122 258.708 321.238 255.752 318.661L202.617 272.383C198.969 269.207 202.399 263.335 206.942 264.958L273.381 288.352C277.102 289.662 280.495 285.817 278.77 282.283L247.388 219.18C245.276 214.852 250.646 210.757 254.223 213.968L306.668 261.029C309.604 263.66 314.221 261.406 313.953 257.473L309.062 187.156C308.731 182.361 315.298 180.629 317.375 184.974L347.819 248.535C349.544 252.07 354.662 251.76 355.919 248.021L378.383 181.232C379.899 176.652 386.64 177.559 386.898 182.39L390.695 252.75C390.908 256.666 395.792 258.346 398.369 255.391L444.647 202.255C447.823 198.607 453.695 202.036 452.073 206.58L428.677 273.019C427.369 276.74 431.212 280.133 434.747 278.408L497.851 247.026C502.179 244.914 506.274 250.284 503.062 253.86L456.001 306.306C453.371 309.243 455.624 313.859 459.557 313.591L459.575 313.627Z" stroke="#E8E8E8" stroke-width="0.668651" stroke-miterlimit="10"/>
<path d="M409.122 335.975L444.271 333.557C446.669 333.391 447.535 336.675 445.362 337.714L413.582 352.935C411.814 353.798 411.969 356.357 413.839 356.986L447.224 368.199C449.514 368.958 449.06 372.327 446.645 372.457L411.466 374.355C409.507 374.462 408.668 376.904 410.145 378.192L436.713 401.331C438.537 402.919 436.822 405.856 434.551 405.044L401.331 393.347C399.471 392.692 397.774 394.614 398.636 396.381L414.327 427.934C415.383 430.097 412.698 432.144 410.91 430.539L384.687 407.008C383.219 405.694 380.911 406.82 381.045 408.786L383.463 443.936C383.629 446.333 380.345 447.199 379.307 445.027L364.085 413.246C363.222 411.479 360.663 411.635 360.035 413.504L348.822 446.889C348.063 449.179 344.692 448.725 344.564 446.31L342.665 411.129C342.558 409.173 340.116 408.332 338.827 409.81L315.689 436.377C314.1 438.201 311.165 436.487 311.976 434.215L323.674 400.996C324.328 399.135 322.406 397.439 320.638 398.302L289.087 413.992C286.924 415.048 284.875 412.363 286.481 410.575L310.012 384.351C311.327 382.884 310.2 380.575 308.234 380.709L273.085 383.129C270.686 383.293 269.822 380.01 271.994 378.972L303.774 363.75C305.542 362.887 305.386 360.328 303.517 359.7L270.131 348.485C267.841 347.728 268.295 344.358 270.71 344.228L305.89 342.33C307.848 342.223 308.688 339.782 307.21 338.492L280.643 315.353C278.818 313.766 280.533 310.829 282.806 311.641L316.024 323.337C317.885 323.993 319.582 322.071 318.719 320.303L303.029 288.752C301.972 286.588 304.657 284.54 306.446 286.147L332.669 309.676C334.137 310.992 336.445 309.866 336.311 307.898L333.865 272.741C333.699 270.342 336.983 269.476 338.022 271.649L353.244 303.43C354.106 305.197 356.666 305.042 357.293 303.172L368.526 269.778C369.283 267.487 372.654 267.942 372.784 270.356L374.682 305.537C374.789 307.495 377.23 308.335 378.519 306.857L401.657 280.29C403.246 278.465 406.182 280.181 405.371 282.452L393.673 315.672C393.018 317.532 394.941 319.229 396.708 318.366L428.26 302.676C430.424 301.619 432.471 304.303 430.865 306.093L407.335 332.315C406.019 333.783 407.146 336.092 409.113 335.957L409.122 335.975Z" stroke="#E8E8E8" stroke-width="0.668651" stroke-miterlimit="10"/>
</g>
</g>
<defs>
<clipPath id="clip0_4_4424">
<rect width="534.921" height="534.921" fill="white" transform="translate(481.707 0.648926) rotate(63.9828)"/>
</clipPath>
</defs>
</svg>
